<svg width="1440" height="230" viewBox="0 0 1440 230" className="text-white" fill="#fff" xmlns="http://www.w3.org/2000/svg">
<path d="M75.7895 -74.4745H0V1.31495H75.7895V-74.4745Z" stroke="#121268" stroke-width="3.5"/>
<path d="M151.579 -74.4745H75.7896V1.31495H151.579V-74.4745Z" stroke="#121268" stroke-width="3.5"/>
<path d="M227.368 -74.4745H151.579V1.31495H227.368V-74.4745Z" stroke="#121268" stroke-width="3.5"/>
<path d="M303.158 -74.4745H227.368V1.31495H303.158V-74.4745Z" stroke="#121268" stroke-width="3.5"/>
<path d="M378.947 -74.4745H303.158V1.31495H378.947V-74.4745Z" stroke="#121268" stroke-width="3.5"/>
<path d="M454.737 -74.4745H378.947V1.31495H454.737V-74.4745Z" stroke="#121268" stroke-width="3.5"/>
<path d="M530.526 -74.4745H454.737V1.31495H530.526V-74.4745Z" stroke="#121268" stroke-width="3.5"/>
<path d="M606.316 -74.4745H530.526V1.31495H606.316V-74.4745Z" stroke="#121268" stroke-width="3.5"/>
<path d="M682.105 -74.4745H606.316V1.31495H682.105V-74.4745Z" stroke="#121268" stroke-width="3.5"/>
<path d="M757.895 -74.4745H682.105V1.31495H757.895V-74.4745Z" stroke="#121268" stroke-width="3.5"/>
<path d="M833.684 -74.4745H757.895V1.31495H833.684V-74.4745Z" stroke="#121268" stroke-width="3.5"/>
<path d="M909.474 -74.4745H833.684V1.31495H909.474V-74.4745Z" stroke="#121268" stroke-width="3.5"/>
<path d="M985.263 -74.4745H909.474V1.31495H985.263V-74.4745Z" stroke="#121268" stroke-width="3.5"/>
<path d="M1061.05 -74.4745H985.263V1.31495H1061.05V-74.4745Z" stroke="#121268" stroke-width="3.5"/>
<path d="M1136.84 -74.4745H1061.05V1.31495H1136.84V-74.4745Z" stroke="#121268" stroke-width="3.5"/>
<path d="M1212.63 -74.4745H1136.84V1.31495H1212.63V-74.4745Z" stroke="#121268" stroke-width="3.5"/>
<path d="M1288.42 -74.4745H1212.63V1.31495H1288.42V-74.4745Z" stroke="#121268" stroke-width="3.5"/>
<path d="M1364.21 -74.4745H1288.42V1.31495H1364.21V-74.4745Z" stroke="#121268" stroke-width="3.5"/>
<path d="M1440 -74.4745H1364.21V1.31495H1440V-74.4745Z" stroke="#121268" stroke-width="3.5"/>
<path d="M75.7895 1.31458H0V77.1041H75.7895V1.31458Z" stroke="#121268" stroke-width="3.5"/>
<path d="M151.579 1.31458H75.7896V77.1041H151.579V1.31458Z" stroke="#121268" stroke-width="3.5"/>
<path d="M227.368 1.31458H151.579V77.1041H227.368V1.31458Z" stroke="#121268" stroke-width="3.5"/>
<path d="M303.158 1.31458H227.368V77.1041H303.158V1.31458Z" stroke="#121268" stroke-width="3.5"/>
<path d="M378.947 1.31458H303.158V77.1041H378.947V1.31458Z" stroke="#121268" stroke-width="3.5"/>
<path d="M454.737 1.31458H378.947V77.1041H454.737V1.31458Z" stroke="#121268" stroke-width="3.5"/>
<path d="M530.526 1.31458H454.737V77.1041H530.526V1.31458Z" stroke="#121268" stroke-width="3.5"/>
<path d="M606.316 1.31458H530.526V77.1041H606.316V1.31458Z" stroke="#121268" stroke-width="3.5"/>
<path d="M682.105 1.31458H606.316V77.1041H682.105V1.31458Z" stroke="#121268" stroke-width="3.5"/>
<path d="M757.895 1.31458H682.105V77.1041H757.895V1.31458Z" stroke="#121268" stroke-width="3.5"/>
<path d="M833.684 1.31458H757.895V77.1041H833.684V1.31458Z" stroke="#121268" stroke-width="3.5"/>
<path d="M909.474 1.31458H833.684V77.1041H909.474V1.31458Z" stroke="#121268" stroke-width="3.5"/>
<path d="M985.263 1.31458H909.474V77.1041H985.263V1.31458Z" stroke="#121268" stroke-width="3.5"/>
<path d="M1061.05 1.31458H985.263V77.1041H1061.05V1.31458Z" stroke="#121268" stroke-width="3.5"/>
<path d="M1136.84 1.31458H1061.05V77.1041H1136.84V1.31458Z" stroke="#121268" stroke-width="3.5"/>
<path d="M1212.63 1.31458H1136.84V77.1041H1212.63V1.31458Z" stroke="#121268" stroke-width="3.5"/>
<path d="M1288.42 1.31458H1212.63V77.1041H1288.42V1.31458Z" stroke="#121268" stroke-width="3.5"/>
<path d="M1364.21 1.31458H1288.42V77.1041H1364.21V1.31458Z" stroke="#121268" stroke-width="3.5"/>
<path d="M1440 1.31458H1364.21V77.1041H1440V1.31458Z" stroke="#121268" stroke-width="3.5"/>
<path d="M75.7895 77.1056H0V152.895H75.7895V77.1056Z" stroke="#121268" stroke-width="3.5"/>
<path d="M151.579 77.1056H75.7896V152.895H151.579V77.1056Z" stroke="#121268" stroke-width="3.5"/>
<path d="M227.368 77.1056H151.579V152.895H227.368V77.1056Z" stroke="#121268" stroke-width="3.5"/>
<path d="M303.158 77.1056H227.368V152.895H303.158V77.1056Z" stroke="#121268" stroke-width="3.5"/>
<path d="M378.947 77.1056H303.158V152.895H378.947V77.1056Z" stroke="#121268" stroke-width="3.5"/>
<path d="M454.737 77.1056H378.947V152.895H454.737V77.1056Z" stroke="#121268" stroke-width="3.5"/>
<path d="M530.526 77.1056H454.737V152.895H530.526V77.1056Z" stroke="#121268" stroke-width="3.5"/>
<path d="M606.316 77.1056H530.526V152.895H606.316V77.1056Z" stroke="#121268" stroke-width="3.5"/>
<path d="M682.105 77.1056H606.316V152.895H682.105V77.1056Z" stroke="#121268" stroke-width="3.5"/>
<path d="M757.895 77.1056H682.105V152.895H757.895V77.1056Z" stroke="#121268" stroke-width="3.5"/>
<path d="M833.684 77.1056H757.895V152.895H833.684V77.1056Z" stroke="#121268" stroke-width="3.5"/>
<path d="M909.474 77.1056H833.684V152.895H909.474V77.1056Z" stroke="#121268" stroke-width="3.5"/>
<path d="M985.263 77.1056H909.474V152.895H985.263V77.1056Z" stroke="#121268" stroke-width="3.5"/>
<path d="M1061.05 77.1056H985.263V152.895H1061.05V77.1056Z" stroke="#121268" stroke-width="3.5"/>
<path d="M1136.84 77.1056H1061.05V152.895H1136.84V77.1056Z" stroke="#121268" stroke-width="3.5"/>
<path d="M1212.63 77.1056H1136.84V152.895H1212.63V77.1056Z" stroke="#121268" stroke-width="3.5"/>
<path d="M1288.42 77.1056H1212.63V152.895H1288.42V77.1056Z" stroke="#121268" stroke-width="3.5"/>
<path d="M1364.21 77.1056H1288.42V152.895H1364.21V77.1056Z" stroke="#121268" stroke-width="3.5"/>
<path d="M1440 77.1056H1364.21V152.895H1440V77.1056Z" stroke="#121268" stroke-width="3.5"/>
<path d="M75.7895 152.897H0V228.686H75.7895V152.897Z" stroke="#121268" stroke-width="3.5"/>
<path d="M151.579 152.897H75.7896V228.686H151.579V152.897Z" stroke="#121268" stroke-width="3.5"/>
<path d="M227.368 152.897H151.579V228.686H227.368V152.897Z" stroke="#121268" stroke-width="3.5"/>
<path d="M303.158 152.897H227.368V228.686H303.158V152.897Z" stroke="#121268" stroke-width="3.5"/>
<path d="M378.947 152.897H303.158V228.686H378.947V152.897Z" stroke="#121268" stroke-width="3.5"/>
<path d="M454.737 152.897H378.947V228.686H454.737V152.897Z" stroke="#121268" stroke-width="3.5"/>
<path d="M530.526 152.897H454.737V228.686H530.526V152.897Z" stroke="#121268" stroke-width="3.5"/>
<path d="M606.316 152.897H530.526V228.686H606.316V152.897Z" stroke="#121268" stroke-width="3.5"/>
<path d="M682.105 152.897H606.316V228.686H682.105V152.897Z" stroke="#121268" stroke-width="3.5"/>
<path d="M757.895 152.897H682.105V228.686H757.895V152.897Z" stroke="#121268" stroke-width="3.5"/>
<path d="M833.684 152.897H757.895V228.686H833.684V152.897Z" stroke="#121268" stroke-width="3.5"/>
<path d="M909.474 152.897H833.684V228.686H909.474V152.897Z" stroke="#121268" stroke-width="3.5"/>
<path d="M985.263 152.897H909.474V228.686H985.263V152.897Z" stroke="#121268" stroke-width="3.5"/>
<path d="M1061.05 152.897H985.263V228.686H1061.05V152.897Z" stroke="#121268" stroke-width="3.5"/>
<path d="M1136.84 152.897H1061.05V228.686H1136.84V152.897Z" stroke="#121268" stroke-width="3.5"/>
<path d="M1212.63 152.897H1136.84V228.686H1212.63V152.897Z" stroke="#121268" stroke-width="3.5"/>
<path d="M1288.42 152.897H1212.63V228.686H1288.42V152.897Z" stroke="#121268" stroke-width="3.5"/>
<path d="M1364.21 152.897H1288.42V228.686H1364.21V152.897Z" stroke="#121268" stroke-width="3.5"/>
<path d="M1440 152.897H1364.21V228.686H1440V152.897Z" stroke="#121268" stroke-width="3.5"/>
<path d="M75.7895 228.684H0V304.473H75.7895V228.684Z" stroke="#121268" stroke-width="3.5"/>
<path d="M151.579 228.684H75.7896V304.473H151.579V228.684Z" stroke="#121268" stroke-width="3.5"/>
<path d="M227.368 228.684H151.579V304.473H227.368V228.684Z" stroke="#121268" stroke-width="3.5"/>
<path d="M303.158 228.684H227.368V304.473H303.158V228.684Z" stroke="#121268" stroke-width="3.5"/>
<path d="M378.947 228.684H303.158V304.473H378.947V228.684Z" stroke="#121268" stroke-width="3.5"/>
<path d="M454.737 228.684H378.947V304.473H454.737V228.684Z" stroke="#121268" stroke-width="3.5"/>
<path d="M530.526 228.684H454.737V304.473H530.526V228.684Z" stroke="#121268" stroke-width="3.5"/>
<path d="M606.316 228.684H530.526V304.473H606.316V228.684Z" stroke="#121268" stroke-width="3.5"/>
<path d="M682.105 228.684H606.316V304.473H682.105V228.684Z" stroke="#121268" stroke-width="3.5"/>
<path d="M757.895 228.684H682.105V304.473H757.895V228.684Z" stroke="#121268" stroke-width="3.5"/>
<path d="M833.684 228.684H757.895V304.473H833.684V228.684Z" stroke="#121268" stroke-width="3.5"/>
<path d="M909.474 228.684H833.684V304.473H909.474V228.684Z" stroke="#121268" stroke-width="3.5"/>
<path d="M985.263 228.684H909.474V304.473H985.263V228.684Z" stroke="#121268" stroke-width="3.5"/>
<path d="M1061.05 228.684H985.263V304.473H1061.05V228.684Z" stroke="#121268" stroke-width="3.5"/>
<path d="M1136.84 228.684H1061.05V304.473H1136.84V228.684Z" stroke="#121268" stroke-width="3.5"/>
<path d="M1212.63 228.684H1136.84V304.473H1212.63V228.684Z" stroke="#121268" stroke-width="3.5"/>
<path d="M1288.42 228.684H1212.63V304.473H1288.42V228.684Z" stroke="#121268" stroke-width="3.5"/>
<path d="M1364.21 228.684H1288.42V304.473H1364.21V228.684Z" stroke="#121268" stroke-width="3.5"/>
<path d="M1440 228.684H1364.21V304.473H1440V228.684Z" stroke="#121268" stroke-width="3.5"/>
</svg>
