<svg width="19" height="18" viewBox="0 0 19 18" fill="none" xmlns="http://www.w3.org/2000/svg">
<path d="M17.9136 7.93578L14.3902 11.0108L15.4456 15.5889C15.5015 15.8282 15.4855 16.0787 15.3998 16.309C15.3141 16.5394 15.1623 16.7393 14.9636 16.8839C14.7648 17.0284 14.5279 17.1112 14.2824 17.1218C14.0368 17.1324 13.7936 17.0704 13.5831 16.9436L9.59015 14.5217L5.60578 16.9436C5.39529 17.0704 5.15207 17.1324 4.90654 17.1218C4.66101 17.1112 4.42405 17.0284 4.22531 16.8839C4.02656 16.7393 3.87483 16.5394 3.7891 16.309C3.70336 16.0787 3.68743 15.8282 3.74328 15.5889L4.79718 11.0155L1.27297 7.93578C1.08657 7.77502 0.951781 7.5628 0.88551 7.32574C0.81924 7.08868 0.824435 6.83733 0.900445 6.60321C0.976454 6.36909 1.11989 6.16262 1.31278 6.0097C1.50566 5.85678 1.7394 5.76421 1.98469 5.74359L6.63 5.34125L8.44328 1.01625C8.53797 0.78931 8.69769 0.595459 8.90233 0.459108C9.10697 0.322756 9.34737 0.25 9.59328 0.25C9.83918 0.25 10.0796 0.322756 10.2842 0.459108C10.4889 0.595459 10.6486 0.78931 10.7433 1.01625L12.562 5.34125L17.2058 5.74359C17.4511 5.76421 17.6848 5.85678 17.8777 6.0097C18.0706 6.16262 18.214 6.36909 18.29 6.60321C18.366 6.83733 18.3712 7.08868 18.305 7.32574C18.2387 7.5628 18.1039 7.77502 17.9175 7.93578H17.9136Z" fill="#F2C94C"/>
</svg>
